<?xml version="1.0" encoding="utf-8"?>
<!-- Generator: Adobe Illustrator 19.1.0, SVG Export Plug-In . SVG Version: 6.00 Build 0)  -->
<!DOCTYPE svg PUBLIC "-//W3C//DTD SVG 1.1//EN" "http://www.w3.org/Graphics/SVG/1.1/DTD/svg11.dtd">
<svg version="1.1" id="Layer_1" xmlns="http://www.w3.org/2000/svg" xmlns:xlink="http://www.w3.org/1999/xlink" x="0px" y="0px"
	 viewBox="0 0 54 40" style="enable-background:new 0 0 54 40;" xml:space="preserve">
<g>
	<path d="M27.5,25.4L54,3.7V3.1C54,1.4,52.8,0,51.1,0h-48C1.5,0,0,1.4,0,3.1v0.6l26.6,21.8C26.8,25.6,27.2,25.6,27.5,25.4z"/>
	<path d="M30.9,28.5c-1,0.8-2.4,1.3-3.8,1.3s-2.9-0.5-3.9-1.3L0,9.6v27C0,38.3,1.5,40,3.1,40h48c1.7,0,2.9-1.7,2.9-3.4v-27
		L30.9,28.5z"/>
</g>
</svg>
