<?xml version="1.0" encoding="utf-8"?>
<!-- Generator: Adobe Illustrator 19.1.0, SVG Export Plug-In . SVG Version: 6.00 Build 0)  -->
<!DOCTYPE svg PUBLIC "-//W3C//DTD SVG 1.1//EN" "http://www.w3.org/Graphics/SVG/1.1/DTD/svg11.dtd">
<svg version="1.1" id="Layer_1" xmlns="http://www.w3.org/2000/svg" xmlns:xlink="http://www.w3.org/1999/xlink" x="0px" y="0px"
	 viewBox="0 0 100 100" style="enable-background:new 0 0 100 100;" xml:space="preserve">
<style type="text/css">
	.st0{fill:url(#SVGID_1_);}
</style>
<linearGradient id="SVGID_1_" gradientUnits="userSpaceOnUse" x1="39.6023" y1="98.9174" x2="60.3977" y2="1.0826">
	<stop  offset="0" style="stop-color:#91BF11"/>
	<stop  offset="0.286" style="stop-color:#50A111"/>
	<stop  offset="0.2987" style="stop-color:#4DA011"/>
	<stop  offset="0.3498" style="stop-color:#499C11"/>
	<stop  offset="0.6469" style="stop-color:#348511"/>
	<stop  offset="0.7252" style="stop-color:#317A0F"/>
	<stop  offset="0.8618" style="stop-color:#285D08"/>
	<stop  offset="1" style="stop-color:#1D3A00"/>
</linearGradient>
<path class="st0" d="M50,0C22.4,0,0,22.4,0,50c0,27.6,22.4,50,50,50c27.6,0,50-22.4,50-50C100,22.4,77.6,0,50,0z M77.5,67.8
	c0,1.7-1.2,3.4-2.9,3.4h-48c-1.7,0-3.1-1.7-3.1-3.4v-27l23.2,18.9c1,0.8,2.4,1.3,3.9,1.3s2.8-0.5,3.8-1.3l23.1-18.9V67.8z
	 M77.5,34.9L51,56.6c-0.2,0.2-0.6,0.2-0.8,0L23.5,34.9v-0.6c0-1.7,1.5-3.1,3.1-3.1h48c1.7,0,2.9,1.4,2.9,3.1V34.9z"/>
</svg>
