<?xml version="1.0" encoding="utf-8"?>
<!-- Generator: Adobe Illustrator 19.0.1, SVG Export Plug-In . SVG Version: 6.00 Build 0)  -->
<!DOCTYPE svg PUBLIC "-//W3C//DTD SVG 1.1//EN" "http://www.w3.org/Graphics/SVG/1.1/DTD/svg11.dtd">
<svg version="1.1" xmlns="http://www.w3.org/2000/svg" xmlns:xlink="http://www.w3.org/1999/xlink" x="0px" y="0px"
	 viewBox="-429 231 100 100" style="enable-background:new -429 231 100 100;" xml:space="preserve">
<style type="text/css">
	.st0{display:none;}
	.st1{display:inline;fill:#EAEDE8;}
	.st2{display:inline;fill:#449C11;}
	.st3{display:inline;fill:url(#gradient_2_);}
	.st4{display:inline;}
	.st5{display:inline;fill:url(#icon_1_);}
	.st6{display:inline;fill:url(#SVGID_1_);}
	.st7{fill:url(#SVGID_2_);}
	.st8{display:inline;fill:url(#SVGID_3_);}
	.st9{fill:url(#SVGID_4_);}
</style>
<g id="Layer_1" class="st0">
	<g id="Layer_1_1_">
		<circle id="grey" class="st1" cx="-379" cy="281" r="50"/>
		<circle id="green" class="st2" cx="-379" cy="281" r="50"/>
		
			<linearGradient id="gradient_2_" gradientUnits="userSpaceOnUse" x1="-389.3977" y1="234.0826" x2="-368.6023" y2="331.9174" gradientTransform="matrix(1 0 0 -1 0 564)">
			<stop  offset="0" style="stop-color:#91BF11"/>
			<stop  offset="0.286" style="stop-color:#50A111"/>
			<stop  offset="0.2987" style="stop-color:#4DA011"/>
			<stop  offset="0.3498" style="stop-color:#499C11"/>
			<stop  offset="0.6469" style="stop-color:#348511"/>
			<stop  offset="0.7252" style="stop-color:#317A0F"/>
			<stop  offset="0.8618" style="stop-color:#285D08"/>
			<stop  offset="1" style="stop-color:#1D3A00"/>
		</linearGradient>
		<circle id="gradient" class="st3" cx="-379" cy="281" r="50"/>
	</g>
	<g id="Forms">
		<circle class="st4" cx="-379" cy="282" r="34.5"/>
		
			<linearGradient id="icon_1_" gradientUnits="userSpaceOnUse" x1="-389.3974" y1="234.084" x2="-368.6026" y2="331.916" gradientTransform="matrix(1 0 0 -1 0 564)">
			<stop  offset="0" style="stop-color:#91BF11"/>
			<stop  offset="0.286" style="stop-color:#50A111"/>
			<stop  offset="0.2987" style="stop-color:#4DA011"/>
			<stop  offset="0.3498" style="stop-color:#499C11"/>
			<stop  offset="0.6469" style="stop-color:#348511"/>
			<stop  offset="0.7252" style="stop-color:#317A0F"/>
			<stop  offset="0.8618" style="stop-color:#285D08"/>
			<stop  offset="1" style="stop-color:#1D3A00"/>
		</linearGradient>
		<path id="icon" class="st5" d="M-379,231c-27.6,0-50,22.4-50,50s22.4,50,50,50s50-22.4,50-50S-351.4,231-379,231z M-343.8,268.9
			l-31.1,31l-9.5,9.5c-0.8,0.8-2.1,0.8-2.8,0l-9.5-9.5l0,0l-14.6-14.6c-0.8-0.8-0.8-2.1,0-2.8l9.5-9.5c0.8-0.8,2.1-0.8,2.8,0
			l13.2,13.2l29.7-29.7c0.8-0.8,2.1-0.8,2.8,0l9.5,9.5C-343,266.8-343,268.1-343.8,268.9z"/>
		<g id="icon-mask" class="st4">
			<path d="M-374.9,299.9l-9.5,9.5c-0.8,0.8-2.1,0.8-2.8,0l-24.1-24.1c-0.8-0.8-0.8-2.1,0-2.8l9.5-9.5c0.8-0.8,2.1-0.8,2.8,0
				l24.1,24.1C-374.1,297.9-374.1,299.2-374.9,299.9z"/>
			<path d="M-387.2,309.4l-9.5-9.5c-0.8-0.8-0.8-2.1,0-2.8l40.5-40.5c0.8-0.8,2.1-0.8,2.8,0l9.5,9.5c0.8,0.8,0.8,2.1,0,2.8
				l-40.4,40.5C-385.1,310.2-386.4,310.2-387.2,309.4z"/>
		</g>
	</g>
	<g id="Email">
		<linearGradient id="SVGID_1_" gradientUnits="userSpaceOnUse" x1="-389.3977" y1="232.0826" x2="-368.6023" y2="329.9174">
			<stop  offset="0" style="stop-color:#91BF11"/>
			<stop  offset="0.286" style="stop-color:#50A111"/>
			<stop  offset="0.2987" style="stop-color:#4DA011"/>
			<stop  offset="0.3498" style="stop-color:#499C11"/>
			<stop  offset="0.6469" style="stop-color:#348511"/>
			<stop  offset="0.7252" style="stop-color:#317A0F"/>
			<stop  offset="0.8618" style="stop-color:#285D08"/>
			<stop  offset="1" style="stop-color:#1D3A00"/>
		</linearGradient>
		<path class="st6" d="M-379,231c-27.6,0-50,22.4-50,50s22.4,50,50,50s50-22.4,50-50S-351.4,231-379,231z M-352,296.3
			c0,1.7-0.8,2.7-2.5,2.7h-48c-1.7,0-3.5-1-3.5-2.7v-25.4l21.5,22.7c1,1.1,2.6,1.7,4,1.7c1.4,0,2.7-0.4,3.8-1.5l24.6-23.4V296.3z
			 M-352,263.6l-28.1,26.6c-0.2,0.2-0.6,0.2-0.8,0l-25.1-26.6v-0.9c0-1.7,1.8-2.8,3.5-2.8h48c1.7,0,2.5,1.1,2.5,2.8V263.6z"/>
		<g id="icon-mask_2_">
			<path class="st4" d="M-376.6,292.9c-1.1,1-2.4,1.5-3.8,1.5c-1.4,0-3-0.6-4-1.7l-21.5-22.7v25.4c0,1.7,1.8,2.7,3.5,2.7h48
				c1.7,0,2.5-1,2.5-2.7v-25.9L-376.6,292.9z"/>
			<path class="st4" d="M-380.1,289.2l28.1-26.6v-0.8c0-1.7-0.8-2.8-2.5-2.8h-48c-1.7,0-3.5,1.1-3.5,2.8v0.9l25.1,26.6
				C-380.7,289.4-380.3,289.4-380.1,289.2z"/>
		</g>
	</g>
</g>
<g id="Reports" class="st0">
	<linearGradient id="SVGID_2_" gradientUnits="userSpaceOnUse" x1="-389.3977" y1="232.0826" x2="-368.6023" y2="329.9174">
		<stop  offset="0" style="stop-color:#91BF11"/>
		<stop  offset="0.286" style="stop-color:#50A111"/>
		<stop  offset="0.2987" style="stop-color:#4DA011"/>
		<stop  offset="0.3498" style="stop-color:#499C11"/>
		<stop  offset="0.6469" style="stop-color:#348511"/>
		<stop  offset="0.7252" style="stop-color:#317A0F"/>
		<stop  offset="0.8618" style="stop-color:#285D08"/>
		<stop  offset="1" style="stop-color:#1D3A00"/>
	</linearGradient>
	<path class="st7" d="M-379,231c-27.6,0-50,22.4-50,50s22.4,50,50,50s50-22.4,50-50S-351.4,231-379,231z M-390.6,304.8
		c0,1.1-0.9,2-2,2H-404c-1.1,0-2-0.9-2-2v-27.3c0-1.1,0.9-2,2-2h11.4c1.1,0,2,0.9,2,2V304.8z M-371.3,304.8c0,1.1-0.9,2-2,2h-11.4
		c-1.1,0-2-0.9-2-2v-35.5c0-1.1,0.9-2,2-2h11.4c1.1,0,2,0.9,2,2V304.8z M-352,304.8c0,1.1-0.9,2-2,2h-11.4c-1.1,0-2-0.9-2-2v-42.9
		c0-1.1,0.9-2,2-2h11.4c1.1,0,2,0.9,2,2V304.8z"/>
	
		<linearGradient id="SVGID_3_" gradientUnits="userSpaceOnUse" x1="-389.3977" y1="234.0826" x2="-368.6023" y2="331.9174" gradientTransform="matrix(-1 0 0 1 -758 -2)">
		<stop  offset="0" style="stop-color:#91BF11"/>
		<stop  offset="0.286" style="stop-color:#50A111"/>
		<stop  offset="0.2987" style="stop-color:#4DA011"/>
		<stop  offset="0.3498" style="stop-color:#499C11"/>
		<stop  offset="0.6469" style="stop-color:#348511"/>
		<stop  offset="0.7252" style="stop-color:#317A0F"/>
		<stop  offset="0.8618" style="stop-color:#285D08"/>
		<stop  offset="1" style="stop-color:#1D3A00"/>
	</linearGradient>
	<path class="st8" d="M-379,331c-27.6,0-50-22.4-50-50s22.4-50,50-50s50,22.4,50,50S-351.4,331-379,331z"/>
	<g id="icon-mask_3_" class="st4">
		<path d="M-392.6,301.8H-404c-1.1,0-2-0.9-2-2v-27.3c0-1.1,0.9-2,2-2h11.4c1.1,0,2,0.9,2,2v27.3
			C-390.6,300.9-391.5,301.8-392.6,301.8z"/>
		<path d="M-373.3,301.8h-11.4c-1.1,0-2-0.9-2-2v-35.5c0-1.1,0.9-2,2-2h11.4c1.1,0,2,0.9,2,2v35.5
			C-371.3,300.9-372.2,301.8-373.3,301.8z"/>
		<path d="M-354,301.8h-11.4c-1.1,0-2-0.9-2-2v-42.9c0-1.1,0.9-2,2-2h11.4c1.1,0,2,0.9,2,2v42.9C-352,300.9-352.9,301.8-354,301.8z"
			/>
	</g>
	<g id="icon-mask_1_">
		<path class="st4" d="M-392.6,301.8H-404c-1.1,0-2-0.9-2-2v-27.3c0-1.1,0.9-2,2-2h11.4c1.1,0,2,0.9,2,2v27.3
			C-390.6,300.9-391.5,301.8-392.6,301.8z"/>
		<path class="st4" d="M-373.3,301.8h-11.4c-1.1,0-2-0.9-2-2v-35.5c0-1.1,0.9-2,2-2h11.4c1.1,0,2,0.9,2,2v35.5
			C-371.3,300.9-372.2,301.8-373.3,301.8z"/>
		<path class="st4" d="M-354,301.8h-11.4c-1.1,0-2-0.9-2-2v-42.9c0-1.1,0.9-2,2-2h11.4c1.1,0,2,0.9,2,2v42.9
			C-352,300.9-352.9,301.8-354,301.8z"/>
	</g>
</g>
<g id="Layer_3">
	<linearGradient id="SVGID_4_" gradientUnits="userSpaceOnUse" x1="-389.3977" y1="232.0826" x2="-368.6023" y2="329.9174">
		<stop  offset="0" style="stop-color:#91BF11"/>
		<stop  offset="0.286" style="stop-color:#50A111"/>
		<stop  offset="0.2987" style="stop-color:#4DA011"/>
		<stop  offset="0.3498" style="stop-color:#499C11"/>
		<stop  offset="0.6469" style="stop-color:#348511"/>
		<stop  offset="0.7252" style="stop-color:#317A0F"/>
		<stop  offset="0.8618" style="stop-color:#285D08"/>
		<stop  offset="1" style="stop-color:#1D3A00"/>
	</linearGradient>
	<path class="st9" d="M-379,231c-27.6,0-50,22.4-50,50s22.4,50,50,50s50-22.4,50-50S-351.4,231-379,231z M-353.5,284.6
		c-1.7,2.6-5.1,3.3-7.7,1.7c-1.2-0.8-2-1.9-2.3-3.1l-9.2,0.1c-0.2,2.7-1.4,5.1-3.2,6.9l5.4,8c0.7-0.3,1.5-0.4,2.4-0.4
		c3.6,0,6.6,3,6.6,6.6s-3,6.6-6.6,6.6s-6.6-3-6.6-6.6c0-1.7,0.7-3.3,1.8-4.5l-5.4-7.9c-1.5,0.9-3.3,1.3-5.2,1.3
		c-2.6,0-5.1-0.9-6.9-2.5l-4.8,4.6c0.6,1,0.9,2.1,0.9,3.4c0,3.6-3,6.6-6.6,6.6s-6.6-3-6.6-6.6s3-6.6,6.6-6.6c1.3,0,2.6,0.4,3.6,1.1
		l4.9-4.7c-1.2-1.7-1.9-3.8-1.9-6.1c0-3.2,1.4-6,3.5-8l-5.1-7.7c-0.6,0.2-1.1,0.3-1.8,0.3c-3.1,0-5.6-2.5-5.6-5.6
		c0-3.1,2.5-5.6,5.6-5.6s5.6,2.5,5.6,5.6c0,1.4-0.5,2.7-1.3,3.6l5.1,7.7c1.5-0.7,3.1-1.1,4.8-1.1c2,0,3.9,0.6,5.5,1.5l10.1-12.5
		c-0.9-1.1-1.4-2.5-1.4-4.1c0-3.6,3-6.6,6.6-6.6s6.6,3,6.6,6.6s-3,6.6-6.6,6.6c-1,0-2-0.2-2.8-0.6l-10.1,12.5
		c1.4,1.4,2.3,3.2,2.7,5.3l9.3-0.1c0.1-0.6,0.4-1.1,0.7-1.6c1.7-2.6,5.1-3.3,7.7-1.7C-352.6,278.6-351.8,282-353.5,284.6z"/>
	<g class="st0">
		<circle class="st4" cx="-383.5" cy="282.5" r="10.8"/>
		<circle class="st4" cx="-362.7" cy="256.6" r="6.6"/>
		<circle class="st4" cx="-400.9" cy="298.8" r="6.6"/>
		<circle class="st4" cx="-368.1" cy="304.4" r="6.6"/>
		<circle class="st4" cx="-397.7" cy="261.5" r="5.6"/>
		
			<rect x="-402.9" y="270.4" transform="matrix(0.5547 0.8321 -0.8321 0.5547 52.2128 446.1895)" class="st4" width="24.3" height="3"/>
		
			<rect x="-389" y="291.8" transform="matrix(0.5606 0.8281 -0.8281 0.5606 77.829 439.8777)" class="st4" width="26.9" height="3"/>
		
			<rect x="-374.4" y="252.3" transform="matrix(0.7796 0.6263 -0.6263 0.7796 86.4662 292.884)" class="st4" width="3" height="33.9"/>
		
			<rect x="-393.8" y="279" transform="matrix(0.6946 0.7194 -0.7194 0.6946 89.1889 370.9164)" class="st4" width="3" height="23.1"/>
		<circle class="st4" cx="-358.2" cy="281.6" r="5.6"/>
		
			<rect x="-372.2" y="269.6" transform="matrix(1.562309e-02 0.9999 -0.9999 1.562309e-02 -83.0859 648.0173)" class="st4" width="3" height="24.3"/>
	</g>
</g>
</svg>
