<svg version="1.1" id="Layer_1" xmlns="http://www.w3.org/2000/svg" x="0px" y="0px"
 viewBox="0 0 100 100" style="enable-background:new 0 0 100 100;" xml:space="preserve">
<linearGradient id="SVGID_1_" x1="39.6023" y1="98.9174" x2="60.3977" y2="1.0826">
<stop  offset="0" style="stop-color:#91BF11"/>
<stop  offset="0.286" style="stop-color:#50A111"/>
<stop  offset="0.2987" style="stop-color:#4DA011"/>
<stop  offset="0.3498" style="stop-color:#499C11"/>
<stop  offset="0.6469" style="stop-color:#348511"/>
<stop  offset="0.7252" style="stop-color:#317A0F"/>
<stop  offset="0.8618" style="stop-color:#285D08"/>
<stop  offset="1" style="stop-color:#1D3A00"/>
</linearGradient>
<path style="fill:url(#SVGID_1_);" d="M50,0C22.4,0,0,22.4,0,50c0,27.6,22.4,50,50,50c27.6,0,50-22.4,50-50C100,22.4,77.6,0,50,0z M76.1,54.2
c-1.7,2.6-5.1,3.3-7.7,1.7c-1.2-0.8-2-1.9-2.3-3.1L56.8,53c-0.2,2.7-1.4,5.1-3.2,6.9l5.4,8c0.7-0.3,1.5-0.4,2.4-0.4
c3.6,0,6.6,3,6.6,6.6s-3,6.6-6.6,6.6s-6.6-3-6.6-6.6c0-1.7,0.7-3.3,1.8-4.5l-5.4-7.9C49.7,62.5,47.9,63,46,63
c-2.6,0-5.1-0.9-6.9-2.5l-4.8,4.6c0.6,1,0.9,2.1,0.9,3.4c0,3.6-3,6.6-6.6,6.6s-6.6-3-6.6-6.6s3-6.6,6.6-6.6c1.3,0,2.6,0.4,3.6,1.1
l4.9-4.7c-1.2-1.7-1.9-3.8-1.9-6.1c0-3.2,1.4-6,3.5-8l-5.1-7.7c-0.6,0.2-1.1,0.3-1.8,0.3c-3.1,0-5.6-2.5-5.6-5.6
c0-3.1,2.5-5.6,5.6-5.6s5.6,2.5,5.6,5.6c0,1.4-0.5,2.7-1.3,3.6l5.1,7.7c1.5-0.7,3.1-1.1,4.8-1.1c2,0,3.9,0.6,5.5,1.5l10.1-12.5
c-0.9-1.1-1.4-2.5-1.4-4.1c0-3.6,3-6.6,6.6-6.6s6.6,3,6.6,6.6s-3,6.6-6.6,6.6c-1,0-2-0.2-2.8-0.6L53.9,44.7c1.4,1.4,2.3,3.2,2.7,5.3
l9.3-0.1c0.1-0.6,0.4-1.1,0.7-1.6c1.7-2.6,5.1-3.3,7.7-1.7C77,48.2,77.7,51.7,76.1,54.2z"/>
</svg>
