<?xml version="1.0" encoding="UTF-8"?>
<svg xmlns="http://www.w3.org/2000/svg" viewBox="0 0 98.65 98.65">
    <title>Sprout SEO</title>
    <path
        d="M50,.67A49.33,49.33,0,1,0,99.33,50,49.35,49.35,0,0,0,50,.67ZM76.57,54.12A5.6,5.6,0,0,1,66.5,52.7l-9.15.14a10.84,10.84,0,0,1-3.17,6.86l5.44,8a6.65,6.65,0,1,1-2.48,1.69L51.77,61.5a10.85,10.85,0,0,1-12.16-1.19L34.81,65a6.46,6.46,0,0,1,.93,3.35,6.6,6.6,0,1,1-6.6-6.6,6.52,6.52,0,0,1,3.6,1.08l4.86-4.69A10.79,10.79,0,0,1,39.26,44l-5.12-7.68A5.6,5.6,0,1,1,38,31a5.57,5.57,0,0,1-1.35,3.64l5.1,7.65a10.77,10.77,0,0,1,10.37.4L62.16,30.19a6.6,6.6,0,1,1,5.18,2.51,6.67,6.67,0,0,1-2.83-.64L54.44,44.58a10.84,10.84,0,0,1,2.74,5.27l9.26-.15a5.6,5.6,0,1,1,10.13,4.42Z"
        transform="translate(-0.67 -0.67)" style="fill:#47b649"/>
</svg>