<?xml version="1.0" encoding="UTF-8"?>
<svg version="1.1" id="Layer_1" xmlns="http://www.w3.org/2000/svg" x="0px"
     y="0px"
     viewBox="0 0 54.9 61" style="enable-background:new 0 0 54.9 61;"
     xml:space="preserve">
<g>
<circle cx="24" cy="32.5" r="10.8"/>
    <circle cx="44.8" cy="6.6" r="6.6"/>
    <circle cx="6.6" cy="48.8" r="6.6"/>
    <circle cx="39.4" cy="54.4" r="6.6"/>
    <circle cx="9.8" cy="11.5" r="5.6"/>
    <rect x="4.6" y="20.4"
          transform="matrix(0.5547 0.8321 -0.8321 0.5547 25.6688 -4.2126)"
          width="24.3" height="3"/>
    <rect x="18.5" y="41.8"
          transform="matrix(0.5606 0.8281 -0.8281 0.5606 49.8601 -7.4088)"
          width="26.9" height="3"/>
    <rect x="33.1" y="2.3"
          transform="matrix(0.7796 0.6263 -0.6263 0.7796 19.7144 -17.4389)"
          width="3" height="33.9"/>
    <rect x="13.7" y="29"
          transform="matrix(0.6946 0.7194 -0.7194 0.6946 33.7916 1.417)"
          width="3" height="23.1"/>
    <circle cx="49.3" cy="31.6" r="5.6"/>
    <rect x="35.4" y="19.6"
          transform="matrix(1.562309e-02 0.9999 -0.9999 1.562309e-02 68.0976 -5.5469)"
          width="3" height="24.3"/>
</g>
</svg>
